<svg id="Layer_1" enable-background="new 0 0 256 256" height="512" viewBox="0 0 256 256" width="512" xmlns="http://www.w3.org/2000/svg"><ellipse cx="133.392" cy="217.732" fill="#87796f" rx="21.759" ry="21.759" transform="matrix(.29 -.957 .957 .29 -113.653 282.305)"/><path d="m133.392 194.473c-12.825 0-23.259 10.434-23.259 23.259s10.434 23.259 23.259 23.259 23.259-10.434 23.259-23.259-10.435-23.259-23.259-23.259zm0 43.518c-11.171 0-20.259-9.088-20.259-20.259s9.088-20.259 20.259-20.259 20.259 9.088 20.259 20.259-9.088 20.259-20.259 20.259z" fill="#3a312a"/><path d="m133.392 208.831c-4.916 0-8.901 3.985-8.901 8.901s3.985 8.901 8.901 8.901 8.901-3.985 8.901-8.901-3.986-8.901-8.901-8.901z" fill="#fae6ca"/><path d="m133.392 207.331c-5.735 0-10.401 4.666-10.401 10.401s4.666 10.401 10.401 10.401 10.401-4.666 10.401-10.401-4.666-10.401-10.401-10.401zm0 17.802c-4.081 0-7.401-3.32-7.401-7.401s3.32-7.401 7.401-7.401 7.401 3.32 7.401 7.401-3.32 7.401-7.401 7.401z" fill="#3a312a"/><ellipse cx="188.608" cy="217.732" fill="#87796f" rx="21.759" ry="21.759" transform="matrix(.23 -.973 .973 .23 -66.632 351.27)"/><path d="m188.608 194.473c-12.825 0-23.259 10.434-23.259 23.259s10.434 23.259 23.259 23.259 23.259-10.434 23.259-23.259-10.434-23.259-23.259-23.259zm0 43.518c-11.171 0-20.259-9.088-20.259-20.259s9.088-20.259 20.259-20.259 20.259 9.088 20.259 20.259-9.088 20.259-20.259 20.259z" fill="#3a312a"/><path d="m188.608 208.831c-4.916 0-8.901 3.985-8.901 8.901s3.985 8.901 8.901 8.901 8.901-3.985 8.901-8.901c.001-4.916-3.985-8.901-8.901-8.901z" fill="#fae6ca"/><path d="m188.608 207.331c-5.735 0-10.401 4.666-10.401 10.401s4.666 10.401 10.401 10.401 10.401-4.666 10.401-10.401c.001-5.735-4.665-10.401-10.401-10.401zm0 17.802c-4.081 0-7.401-3.32-7.401-7.401s3.32-7.401 7.401-7.401 7.401 3.32 7.401 7.401c.001 4.081-3.319 7.401-7.401 7.401z" fill="#3a312a"/><path d="m235.986 66.973h-158.09l25.01 98.95h105.33c2.922 0 5.511-1.882 6.414-4.661l27.75-85.463c1.414-4.357-1.833-8.826-6.414-8.826z" fill="#8ac5dc"/><path d="m242.655 68.871c-1.569-2.159-4-3.398-6.669-3.398h-158.09c-.462 0-.899.213-1.184.579-.284.365-.384.84-.271 1.289l25.01 98.95c.168.666.767 1.132 1.454 1.132h58.657c.829 0 1.5-.671 1.5-1.5s-.671-1.5-1.5-1.5h-57.489l-24.252-95.95h156.164c1.698 0 3.244.788 4.242 2.161s1.27 3.087.746 4.702l-27.751 85.463c-.704 2.168-2.708 3.624-4.987 3.624h-31.768c-.829 0-1.5.671-1.5 1.5s.671 1.5 1.5 1.5h31.768c3.583 0 6.734-2.289 7.84-5.697l27.751-85.463c.825-2.539.398-5.233-1.171-7.392z" fill="#3a312a"/><path d="m219.014 181.471h-112.183l-40.31-159.487c-.813-3.219-3.71-5.474-7.03-5.474h-38.974c-4.005 0-7.251 3.247-7.251 7.251s3.246 7.251 7.251 7.251h33.328l5.531 21.884 3.836 15.176 30.943 122.427c.813 3.219 3.709 5.474 7.03 5.474h117.83c4.005 0 7.251-3.247 7.251-7.251s-3.247-7.251-7.252-7.251z" fill="#87796f"/><path d="m219.015 179.971h-111.016l-40.024-158.355c-.983-3.89-4.472-6.607-8.484-6.607h-38.974c-4.825 0-8.751 3.926-8.751 8.751 0 4.826 3.926 8.751 8.751 8.751h32.16l5.245 20.752c.204.803 1.017 1.289 1.822 1.086.803-.203 1.289-1.019 1.086-1.822l-5.531-21.884c-.168-.666-.767-1.132-1.454-1.132h-33.328c-3.171 0-5.751-2.58-5.751-5.751s2.58-5.751 5.751-5.751h38.975c2.637 0 4.93 1.786 5.576 4.342l40.31 159.487c.168.666.767 1.132 1.454 1.132h112.183c3.171 0 5.751 2.58 5.751 5.751s-2.58 5.751-5.751 5.751h-117.83c-2.637 0-4.929-1.786-5.575-4.342l-30.944-122.426c-.203-.803-1.017-1.289-1.822-1.086-.803.203-1.289 1.018-1.086 1.822l30.943 122.426c.983 3.891 4.471 6.607 8.484 6.607h117.83c4.825 0 8.751-3.926 8.751-8.751s-3.926-8.751-8.751-8.751z" fill="#3a312a"/><path d="m240.226 70.633c-1-1.37-2.54-2.16-4.24-2.16h-15c1.7 0 3.24.79 4.24 2.16s1.27 3.09.75 4.7l-27.75 85.47c-.71 2.16-2.71 3.62-4.99 3.62h15c2.28 0 4.28-1.46 4.99-3.62l27.75-85.47c.52-1.61.25-3.33-.75-4.7z" fill="#6ca6be"/><path d="m219.016 182.973h-15c3.17 0 5.75 2.58 5.75 5.75s-2.58 5.75-5.75 5.75h15c3.17 0 5.75-2.58 5.75-5.75s-2.58-5.75-5.75-5.75z" fill="#6a5c52"/><path d="m50.246 93.193c-.974 11.564-13.025 13.39-13.025 13.39 10.347.487 12.925 14.059 12.925 14.059.221-9.677 13.321-14.202 13.321-14.202-9.813-.588-13.221-13.247-13.221-13.247z" fill="#d6df58"/><path d="m63.557 104.942c-8.604-.514-11.831-12.024-11.863-12.14-.191-.703-.861-1.164-1.584-1.102-.725.066-1.298.642-1.359 1.367-.86 10.215-11.313 11.963-11.754 12.032-.763.115-1.313.79-1.273 1.561.04.77.657 1.384 1.427 1.421 9.028.425 11.499 12.719 11.523 12.843.137.711.759 1.217 1.472 1.217.042 0 .084-.002.126-.005.764-.064 1.357-.693 1.375-1.459.194-8.509 12.191-12.777 12.313-12.819.675-.235 1.092-.914.994-1.622-.1-.71-.683-1.251-1.397-1.294zm-13.566 10.346c-1.357-3.13-3.709-6.907-7.587-8.877 2.931-1.405 6.409-3.913 8.202-8.273 1.551 3.071 4.2 6.88 8.334 8.722-3.007 1.641-6.922 4.406-8.949 8.428z" fill="#3a312a"/><path d="m28.547 110.174c-.689 8.179-9.213 9.471-9.213 9.471 7.318.344 9.142 9.944 9.142 9.944.156-6.844 9.422-10.045 9.422-10.045-6.94-.416-9.351-9.37-9.351-9.37z" fill="#d6df58"/><path d="m37.988 118.045c-5.766-.345-7.972-8.185-7.994-8.264-.19-.702-.853-1.17-1.582-1.102-.726.065-1.299.642-1.36 1.368-.579 6.871-7.646 8.066-7.942 8.113-.763.115-1.313.79-1.274 1.561.04.77.657 1.384 1.427 1.421 6.036.284 7.724 8.644 7.739 8.726.135.713.759 1.22 1.472 1.22.042 0 .083-.001.125-.005.765-.064 1.358-.694 1.376-1.461.13-5.709 8.332-8.634 8.413-8.662.677-.234 1.094-.913.996-1.622-.096-.708-.681-1.25-1.396-1.293zm-9.584 6.796c-.924-1.886-2.34-3.947-4.447-5.28 1.856-1.042 3.697-2.63 4.871-4.917 1.057 1.874 2.654 3.955 4.942 5.224-1.851 1.101-3.99 2.741-5.366 4.973z" fill="#3a312a"/><path d="m28.547 83.516c-.689 8.179-9.213 9.471-9.213 9.471 7.318.344 9.142 9.944 9.142 9.944.156-6.845 9.422-10.045 9.422-10.045-6.94-.416-9.351-9.37-9.351-9.37z" fill="#d6df58"/><path d="m37.989 91.388c-5.767-.345-7.973-8.186-7.994-8.265-.19-.702-.853-1.163-1.582-1.102-.726.065-1.299.642-1.36 1.368-.579 6.871-7.646 8.067-7.942 8.114-.763.115-1.314.79-1.274 1.561.04.77.657 1.384 1.428 1.421 6.035.284 7.723 8.644 7.739 8.725.135.713.759 1.22 1.472 1.22.042 0 .083-.002.125-.005.765-.063 1.358-.694 1.376-1.461.13-5.709 8.332-8.634 8.413-8.662.676-.234 1.094-.913.996-1.622-.098-.707-.683-1.249-1.397-1.292zm-9.585 6.795c-.924-1.885-2.34-3.947-4.447-5.28 1.856-1.041 3.697-2.63 4.871-4.916 1.057 1.873 2.655 3.954 4.942 5.224-1.851 1.1-3.99 2.74-5.366 4.972z" fill="#3a312a"/></svg>