<svg height="512pt" viewBox="0 0 511 512" width="512pt" xmlns="http://www.w3.org/2000/svg"><path d="m402.445312 412.015625h-.003906c-11.042968 0-19.996094 8.953125-20 19.996094-.007812 22.035156-17.925781 39.960937-39.953125 39.988281-22.035156-.027344-39.953125-17.960938-39.953125-40 0-28.003906 19.6875-41.785156 21.515625-43.007812 7.753907-4.558594 11.308594-13.625 8.964844-22.320313-2.351563-8.730469-10.476563-14.671875-19.515625-14.671875h-164.105469c-5.296875-39.058594-13.339843-78.683594-21.148437-117.160156-11.648438-57.394532-22.648438-111.601563-22.648438-154.855469 0-.425781-.039062-.839844-.066406-1.257813.675781-21.464843 18.339844-38.726562 39.96875-38.726562h197.859375c-6.828125 11.773438-10.757813 25.425781-10.761719 39.984375 0 8.28125.347656 16.714844 1.097656 26.539063.804688 10.496093 9.566407 18.476562 19.921876 18.476562.511718 0 1.027343-.019531 1.542968-.058594 11.015625-.839844 19.261719-10.453125 18.417969-21.464844-.667969-8.789062-.980469-16.253906-.980469-23.488281.003906-22.035156 17.921875-39.960937 39.949219-39.988281 22.035156.027344 39.953125 17.960938 39.953125 40 0 21.367188-11.460938 34.453125-17.703125 40h-3.296875c-11.046875 0-20 8.953125-20 20s8.953125 20 20 20h10.035156c3.691406 0 7.3125-1.023438 10.460938-2.953125 1.652344-1.015625 40.503906-25.445313 40.503906-77.046875 0-44.046875-35.785156-79.890625-79.808594-79.99609375-.03125 0-.0625-.00390625-.097656-.00390625-.015625 0-.03125 0-.046875 0s-.03125 0-.046875 0c-.03125 0-.0625.00390625-.097656.00390625-.847656.00390625-1.691406.03515625-2.535156.06640625-.453126-.03125-.902344-.0703125-1.367188-.0703125h-263c-44.113281 0-80 35.886719-80 80 0 .710938.039062 1.40625.109375 2.097656.332031 46.832032 11.554687 102.160156 23.433594 160.695313 7.3125 36.035156 14.828125 73.09375 19.960937 109.207031h-57.503906c-3.691406 0-7.3125 1.023438-10.460938 2.953125-1.636718 1.007813-39.824218 25.019531-40.492187 75.695313-.03125.445312-.046875.898437-.046875 1.351562 0 44.113281 35.886719 80 80 80h261.941406.09375.097656c44.011719-.105469 79.796876-35.941406 79.808594-79.980469.003906-11.042969-8.949218-20-19.996094-20.003906zm-321.945312 59.984375c-21.726562 0-39.460938-17.410156-39.988281-39.011719.015625-.328125.023437-.65625.023437-.988281 0-21.367188 11.460938-34.453125 17.707032-40h213.101562c-5.132812 10.839844-8.808594 24.132812-8.808594 40 0 14.5625 3.914063 28.226562 10.738282 40zm414.441406-182.410156-109.558594-109.804688c-2.328124-2.332031-5.195312-4.054687-8.347656-5.011718l-78.722656-23.910157c-6.980469-2.121093-14.558594-.273437-19.78125 4.820313-5.21875 5.09375-7.253906 12.625-5.304688 19.65625l22.359376 80.722656c.921874 3.324219 2.683593 6.351562 5.121093 8.789062l109.367188 109.574219c11.695312 11.695313 27.0625 17.546875 42.425781 17.546875s30.726562-5.851562 42.425781-17.546875c23.394531-23.394531 23.394531-61.457031.015625-84.835937zm-173.460937-89.886719 39.128906 11.886719 73.925781 74.089844-28.289062 28.289062-73.515625-73.652344zm145.160156 146.4375c-7.796875 7.800781-20.484375 7.800781-28.269531.015625l-3.867188-3.875 28.285156-28.285156 3.855469 3.863281c7.796875 7.796875 7.796875 20.484375-.003906 28.28125zm0 0"/></svg>