<?xml version="1.0" encoding="iso-8859-1"?>
<!-- Generator: Adobe Illustrator 16.0.0, SVG Export Plug-In . SVG Version: 6.00 Build 0)  -->
<!DOCTYPE svg PUBLIC "-//W3C//DTD SVG 1.1//EN" "http://www.w3.org/Graphics/SVG/1.1/DTD/svg11.dtd">
<svg version="1.1" id="Capa_1" xmlns="http://www.w3.org/2000/svg" xmlns:xlink="http://www.w3.org/1999/xlink" x="0px" y="0px"
	 width="485.214px" height="485.214px" viewBox="0 0 485.214 485.214" style="enable-background:new 0 0 485.214 485.214;"
	 xml:space="preserve">
<g>
	<g>
		<path d="M470.051,0.001h-75.817c-7.312,0-13.59,5.243-14.92,12.438l-41.85,230.168H130.01L28.268,68.177
			c-4.235-7.227-13.521-9.656-20.745-5.451c-7.227,4.207-9.67,13.506-5.463,20.731l106.139,181.955
			c2.723,4.682,7.714,7.519,13.105,7.519h210.653l-11.019,60.654h-169.31c-8.38,0-15.161,6.785-15.161,15.163
			c0,8.382,6.781,15.158,15.161,15.158h181.954c7.317,0,13.595-5.236,14.925-12.433l58.376-321.146h63.169
			c8.377,0,15.163-6.781,15.163-15.164C485.214,6.782,478.428,0.001,470.051,0.001z"/>
		<path d="M197.116,394.238c-25.114,0-45.488,20.349-45.488,45.49s20.374,45.485,45.488,45.485c25.113,0,45.49-20.344,45.49-45.485
			S222.229,394.238,197.116,394.238z"/>
		<path d="M318.417,394.238c-25.142,0-45.49,20.349-45.49,45.49s20.349,45.485,45.49,45.485c25.146,0,45.49-20.344,45.49-45.485
			S343.564,394.238,318.417,394.238z"/>
	</g>
</g>
<g>
</g>
<g>
</g>
<g>
</g>
<g>
</g>
<g>
</g>
<g>
</g>
<g>
</g>
<g>
</g>
<g>
</g>
<g>
</g>
<g>
</g>
<g>
</g>
<g>
</g>
<g>
</g>
<g>
</g>
</svg>
